<svg xmlns="http://www.w3.org/2000/svg" xmlns:xlink="http://www.w3.org/1999/xlink" width="24" height="24" viewBox="0 0 24 24">
  <defs>
    <clipPath id="clip-path">
      <rect id="사각형_348898" data-name="사각형 348898" width="24" height="24" transform="translate(1469 30)" fill="#fff"/>
    </clipPath>
  </defs>
  <g id="마스크_그룹_602" data-name="마스크 그룹 602" transform="translate(-1469 -30)" clip-path="url(#clip-path)">
    <g id="blog" transform="translate(1469 32.135)">
      <path id="패스_24015" data-name="패스 24015" d="M71.147,46.217a.931.931,0,0,0-.687.3,1.011,1.011,0,0,0,0,1.409.935.935,0,0,0,.687.3,1,1,0,0,0,0-1.99Z" transform="translate(-66.071 -38.915)" fill="#fff"/>
      <path id="패스_24016" data-name="패스 24016" d="M77.722,46.211a.925.925,0,0,0-.687.3,1.011,1.011,0,0,0,0,1.409.925.925,0,0,0,.687.3.951.951,0,0,0,.7-.3,1,1,0,0,0,0-1.409.951.951,0,0,0-.7-.3Z" transform="translate(-64.341 -38.917)" fill="#fff"/>
      <path id="패스_24017" data-name="패스 24017" d="M82.106,46.217a.926.926,0,0,0-.687.3,1.011,1.011,0,0,0,0,1.409.931.931,0,0,0,.687.3,1,1,0,0,0,0-1.99Z" transform="translate(-63.187 -38.915)" fill="#fff"/>
      <path id="패스_24018" data-name="패스 24018" d="M88.307,40.436H69.542a2.625,2.625,0,0,0-2.616,2.616V53.665a2.625,2.625,0,0,0,2.616,2.616h7.37s1.422,3.885,1.941,3.885,2.058-3.885,2.058-3.885h7.4a2.625,2.625,0,0,0,2.617-2.616V43.052A2.625,2.625,0,0,0,88.307,40.436ZM73.9,50.234a2.3,2.3,0,0,1-2.836.192h-.018v.3h-1.41V44.584h1.41v2.348h.018a2.32,2.32,0,0,1,1.48-.456,1.848,1.848,0,0,1,1.36.672,2.452,2.452,0,0,1,.549,1.579A2.015,2.015,0,0,1,73.9,50.234Zm3.032.54H75.5v-3.8a.916.916,0,0,0-.694-.994V44.456a2.422,2.422,0,0,1,2.131,2.563Zm5.639-1.166a2.241,2.241,0,0,1-.528.74,2.427,2.427,0,0,1-.787.491,2.6,2.6,0,0,1-.94.172,2.527,2.527,0,0,1-.925-.172,2.491,2.491,0,0,1-.787-.491,2.337,2.337,0,0,1-.54-.74,2.153,2.153,0,0,1,0-1.733,2.353,2.353,0,0,1,.54-.74,2.491,2.491,0,0,1,.787-.491,2.526,2.526,0,0,1,.925-.17,2.594,2.594,0,0,1,.94.17,2.427,2.427,0,0,1,.787.491,2.19,2.19,0,0,1,.528,2.49Zm5.649.611a2.8,2.8,0,0,1-.685,2.194,2.439,2.439,0,0,1-2.071.482V51.78a1.193,1.193,0,0,0,1.36-1.062v-.286h-.018a1.591,1.591,0,0,1-1.414.605,1.812,1.812,0,0,1-1.419-.611,2.362,2.362,0,0,1-.509-1.6,2.651,2.651,0,0,1,.567-1.784,1.946,1.946,0,0,1,1.534-.647,1.66,1.66,0,0,1,1.241.444h.018V46.5h1.4Z" transform="translate(-66.926 -40.436)" fill="#fff"/>
    </g>
  </g>
</svg>
