<svg xmlns="http://www.w3.org/2000/svg" xmlns:xlink="http://www.w3.org/1999/xlink" width="24" height="24" viewBox="0 0 24 24">
  <defs>
    <clipPath id="clip-path">
      <rect id="사각형_348899" data-name="사각형 348899" width="24" height="24" transform="translate(1430 30)" fill="#fff"/>
    </clipPath>
  </defs>
  <g id="마스크_그룹_603" data-name="마스크 그룹 603" transform="translate(-1430 -30)" clip-path="url(#clip-path)">
    <path id="youtube" d="M23.506,2.449A3.007,3.007,0,0,0,21.39.333C19.512-.181,12-.181,12-.181s-7.512,0-9.39.494A3.068,3.068,0,0,0,.494,2.449,31.682,31.682,0,0,0,0,8.221a31.565,31.565,0,0,0,.494,5.773A3.007,3.007,0,0,0,2.61,16.109c1.9.514,9.39.514,9.39.514s7.512,0,9.39-.494a3.007,3.007,0,0,0,2.116-2.115A31.692,31.692,0,0,0,24,8.241,30.074,30.074,0,0,0,23.506,2.449Zm-13.9,9.37v-7.2l6.247,3.6Zm0,0" transform="translate(1430 33.779)" fill="#fff"/>
  </g>
</svg>
