<svg width="679" height="250" viewBox="0 0 679 250" fill="none" xmlns="http://www.w3.org/2000/svg">
<path d="M148.957 119.772H157.823C157.823 123.058 157.234 126.22 154.568 129.785H156.955C157.575 128.979 158.102 128.08 158.536 127.243C159.435 125.507 160.272 122.872 160.241 120.082L160.21 117.974H148.957V119.772ZM151.561 140.325H168.053V138.465H153.7V132.947H151.561V140.325ZM165.418 132.451H167.464V125.693H170.812V123.864H167.464V116.238H165.418V132.451ZM174.1 128.948H187.678V127.336H183.183L185.26 120.578H183.431L181.478 127.336H179.68L177.262 120.578H175.495L178.037 127.336H174.1V128.948ZM174.1 119.059H187.43V117.416H174.1V119.059ZM178.657 139.984H195.211V137.969H180.548V132.327H178.657V139.984ZM187.647 126.84H192.018V131.738H194.436V116.362H192.018V120.113H187.647V121.973H192.018V124.918H187.647V126.84ZM208.604 128.638H230.862V126.995H225.933C226.584 124.732 227.483 121.353 227.483 118.563V116.951H211.177V118.842H225.22C225.22 120.981 224.755 124.484 223.825 126.995H208.604V128.638ZM211.115 140.573H227.824V131.459H225.809V134.528H213.254V131.459H211.115V140.573ZM213.254 139.023V135.923H225.809V139.023H213.254ZM235.293 130.374C235.293 133.753 238.052 134.993 239.788 134.993H243.043C245.058 134.993 247.042 133.226 247.042 130.591V122.81C247.042 120.113 244.934 117.881 242.671 117.881H239.788C237.618 117.881 235.293 120.113 235.293 122.81V130.374ZM237.246 123.182C237.246 121.291 238.827 119.834 240.811 119.834H241.679C243.663 119.834 245.089 121.384 245.089 123.244V129.63C245.089 131.242 244.19 133.288 241.989 133.288H240.47C237.959 133.288 237.246 131.273 237.246 129.94V123.182ZM249.026 131.955H253.707V140.573H256.125V116.362H253.707V123.368H249.026V125.321H253.707V130.002H249.026V131.955ZM261.259 130.901C261.259 133.505 263.305 135.024 265.785 135.024H269.009C271.489 135.024 273.442 133.536 273.442 130.994V122.779C273.442 120.206 271.179 118.377 268.916 118.377H265.785C263.553 118.377 261.259 120.206 261.259 122.779V130.901ZM263.398 123.43C263.398 121.539 264.576 120.268 266.56 120.268H268.141C270.125 120.268 271.303 121.539 271.303 123.43V130.529C271.303 132.42 270.125 133.381 268.141 133.381H266.56C264.576 133.381 263.398 132.42 263.398 130.529V123.43ZM277.813 140.542H280.107V116.331H277.813V140.542ZM284.806 135.241C285.333 135.086 285.798 134.9 286.232 134.714C287.875 134.001 290.169 131.924 290.851 128.948C291.533 131.924 293.827 134.063 295.47 134.745C295.904 134.931 296.338 135.117 296.865 135.241V133.35C292.463 131.645 291.843 126.716 291.843 121.973H296.803V120.268H291.998V117.447H289.611V120.268H285.054V121.973H289.797C289.797 126.716 289.208 131.645 284.806 133.35V135.241ZM295.873 127.987H299.469V140.604H301.577V116.238H299.469V125.91H295.873V127.987ZM305.421 140.604H307.405V116.238H305.421V140.604ZM324.111 126.003H329.288V140.604H331.489V116.238H329.288V123.585H324.111V126.003ZM312.176 134.342L313.602 133.536C315.059 132.637 317.322 131.056 318.655 128.204C320.081 131.056 322.251 132.637 323.646 133.567C323.987 133.815 324.452 134.063 324.762 134.28V131.955C320.67 129.165 319.864 126.778 319.864 122.655V118.501H317.477V122.655C317.477 126.933 316.144 129.413 312.176 132.048V134.342ZM337.079 134.683H348.363V118.47H346.379V123.864H339.001V118.47H337.079V134.683ZM339.001 132.482V126.065H346.379V132.482H339.001ZM353.54 140.542H355.803V116.331H353.54V140.542ZM360.273 137.504H382.128V135.52H360.273V137.504ZM365.791 130.932C367.496 128.731 369.573 124.918 371.092 121.601C372.735 124.794 375.06 128.7 376.827 130.932H379.617C376.765 127.119 372.983 121.012 372.332 117.943H369.573C368.984 120.485 366.132 126.592 362.412 130.932H365.791ZM395.795 130.901C395.795 133.505 397.841 135.024 400.321 135.024H403.545C406.025 135.024 407.978 133.536 407.978 130.994V122.779C407.978 120.206 405.715 118.377 403.452 118.377H400.321C398.089 118.377 395.795 120.206 395.795 122.779V130.901ZM397.934 123.43C397.934 121.539 399.112 120.268 401.096 120.268H402.676C404.661 120.268 405.839 121.539 405.839 123.43V130.529C405.839 132.42 404.661 133.381 402.676 133.381H401.096C399.112 133.381 397.934 132.42 397.934 130.529V123.43ZM412.349 140.542H414.643V116.331H412.349V140.542ZM419.217 129.599H441.692V127.77H435.678V124.732C437.848 124.577 439.088 123.027 439.088 121.601V119.741C439.088 117.633 437.042 116.238 435.089 116.238H425.851C423.96 116.238 422.1 117.85 422.1 119.803V121.539C422.1 123.368 423.774 124.856 426.068 124.887V127.77H419.217V129.599ZM421.449 138.093C421.449 139.426 422.782 140.573 424.301 140.573H436.019C437.445 140.573 439.026 139.426 439.026 137.69V136.016C439.026 134.59 437.755 133.195 435.833 133.195H424.611C422.999 133.195 421.449 134.373 421.449 136.078V138.093ZM423.65 136.729C423.65 135.768 424.146 134.931 425.758 134.931H434.717C436.329 134.931 437.042 135.52 437.042 136.729V137.163C437.042 138.279 436.174 139.054 434.872 139.054H425.634C424.394 139.054 423.65 138.682 423.65 137.194V136.729ZM424.115 120.64C424.115 118.904 425.169 117.912 426.967 117.912H434.19C436.019 117.912 437.073 118.904 437.073 120.64C437.073 122.345 436.019 123.275 434.19 123.275H426.967C425.169 123.275 424.115 122.562 424.115 120.64ZM428.269 127.77V124.794H433.477V127.77H428.269ZM445.281 128.824H467.105V127.15H445.281V128.824ZM447.823 120.981C447.823 123.12 449.621 124.453 451.977 124.453H460.502C462.982 124.453 464.749 123.12 464.749 120.95V119.493C464.749 117.323 462.641 115.928 460.75 115.928H451.729C449.59 115.928 447.823 117.323 447.823 119.462V120.981ZM448.071 140.914H464.501V139.581H450.024V136.946H464.191V131.366H448.071V132.544H461.742V135.427H448.071V140.914ZM449.807 120.268C449.807 118.625 450.675 117.571 452.442 117.571H460.099C461.897 117.571 462.765 118.625 462.765 120.268C462.765 121.88 461.897 122.934 460.099 122.934H452.442C450.675 122.934 449.807 121.88 449.807 120.268ZM480.4 132.668H486.631V140.511H488.77V132.668H496.923V130.87H480.4V132.668ZM483.097 124.267C483.097 126.344 484.957 127.739 486.91 127.739H490.196C492.521 127.739 493.916 126.375 493.916 124.267V120.764C493.916 118.687 492.459 116.92 490.196 116.92H486.91C484.771 116.92 483.097 118.687 483.097 120.764V124.267ZM485.019 121.198C485.019 119.679 485.887 118.625 487.747 118.625H489.421C491.281 118.625 491.994 119.648 491.994 121.167V123.461C491.994 125.042 491.281 126.034 489.421 126.034H487.747C485.887 126.034 485.019 125.042 485.019 123.461V121.198ZM498.969 140.542H501.17V116.362H498.969V140.542ZM505.861 119.865H508.775C508.062 120.206 507.101 121.384 507.101 123.027V126.53C507.101 129.041 509.085 130.219 510.852 130.219H513.952C515.719 130.219 517.703 129.041 517.703 126.375V123.027C517.703 121.384 516.742 120.206 516.029 119.865H518.943V118.439H513.58V116.362H511.224V118.439H505.861V119.865ZM508.837 139.922H525.515V137.938H510.976V132.606H508.837V139.922ZM508.992 123.895C508.992 121.787 509.984 120.888 511.751 120.888H513.022C514.789 120.888 515.781 121.787 515.781 123.895V125.941C515.781 127.801 515.006 128.607 513.022 128.607H511.782C509.767 128.607 508.992 127.801 508.992 125.941V123.895ZM522.477 132.048H524.678V125.197H528.305V123.182H524.678V116.269H522.477V132.048Z" fill="black"/>
<path d="M159.5 108C160.605 108 161.5 107.105 161.5 106C161.5 104.895 160.605 104 159.5 104C158.395 104 157.5 104.895 157.5 106C157.5 107.105 158.395 108 159.5 108Z" fill="black"/>
<path d="M190.5 108C191.605 108 192.5 107.105 192.5 106C192.5 104.895 191.605 104 190.5 104C189.395 104 188.5 104.895 188.5 106C188.5 107.105 189.395 108 190.5 108Z" fill="black"/>
<path d="M105.118 164.34V159.24H110.728V164.34H121.03V168.42H115.675C118.072 170.97 119.755 174.795 119.755 179.64C119.755 188.718 114.298 194.43 107.923 194.43C101.446 194.43 95.989 188.718 96.04 179.64C95.989 174.846 97.723 170.97 100.171 168.42H95.02V164.34H105.118ZM107.923 168.522C104.506 168.522 101.395 172.602 101.395 179.64C101.395 186.372 104.455 190.35 107.872 190.35C111.34 190.35 114.349 186.372 114.4 179.64C114.349 172.5 111.442 168.522 107.923 168.522ZM131.74 177.6V205.14H126.385V159.24H131.74V173.52H138.88V177.6H131.74ZM150.579 187.8H164.043C167.205 187.8 169.959 187.851 172.305 186.576V159.24H177.66V173.52H184.8V177.6H177.66V205.14H172.305V190.452C170.061 191.574 167.001 191.88 164.043 191.88H147.774C144.867 191.88 142.725 189.177 142.725 185.811V161.28H148.08V185.709C148.08 186.882 149.1 187.8 150.579 187.8ZM208.841 158.73C216.134 158.73 221.234 164.748 221.285 172.245C221.234 176.937 219.143 181.119 215.726 183.567H229.19V187.647H198.845V198.816C198.845 200.04 199.865 201.06 201.089 201.06H224.09V205.14H198.08C195.428 205.14 193.49 202.488 193.49 199.326V187.647H188.39V183.567H201.803C198.335 181.119 196.244 176.886 196.295 172.245C196.244 164.952 201.395 158.73 208.841 158.73ZM208.841 162.81C204.914 162.81 201.65 167.094 201.65 172.245C201.65 177.702 204.608 181.68 208.841 181.68C212.819 181.68 215.93 177.6 215.93 172.245C215.93 166.992 212.768 162.81 208.841 162.81ZM240.583 162.81V158.22H246.193V162.81H254.455V166.89H250.885C252.568 168.777 253.69 171.174 253.69 173.775C253.69 179.64 249.151 184.23 243.388 184.23C237.472 184.23 233.035 179.589 233.035 173.775C233.035 171.174 234.157 168.777 235.84 166.89H232.525V162.81H240.583ZM243.388 166.992C240.685 166.992 238.39 170.001 238.39 173.775C238.39 177.141 240.583 180.15 243.337 180.15C246.091 180.15 248.335 177.09 248.335 173.775C248.335 170.001 246.295 166.992 243.388 166.992ZM262.87 173.01V183.924C264.553 184.23 266.236 184.842 267.715 185.811V173.01H262.87ZM257.515 184.128V159.24H262.87V168.93H267.715V159.24H273.07V195.246C273.07 202.08 266.695 206.67 260.728 206.67C254.251 206.67 248.284 202.182 248.335 195.246C248.284 189.84 252.466 185.454 257.515 184.128ZM260.728 187.8C257.413 187.8 253.69 190.554 253.69 195.246C253.69 199.734 257.209 202.59 260.677 202.59C264.043 202.59 267.664 199.836 267.715 195.246C267.664 190.452 264.145 187.8 260.728 187.8ZM307.76 165.87H295.52V161.79H313.37V167.145H319.235V159.24H324.59V205.14H319.235V187.035H310.871V182.955H319.235V171.225H313.013C311.534 181.323 305.414 190.095 295.01 192.39V188.31C302.966 185.454 307.76 176.58 307.76 167.298V165.87ZM334.28 159.24V205.14H328.925V159.24H334.28ZM365.665 165.87H356.74V166.482C356.74 174.285 360.616 180.609 366.175 181.986V186.27C360.82 185.811 354.547 180.609 353.833 177.039C352.966 180.66 346.846 185.658 341.695 186.27V181.986C347.152 180.609 351.13 174.285 351.13 166.38V165.87H342.205V161.79H365.665V165.87ZM371.275 194.379C370.153 195.042 368.113 195.399 366.379 195.399H339.91V191.319H350.977V183.567H356.281V191.319H366.277C368.266 191.319 370 190.911 371.275 190.197V159.24H376.63V172.5H383.77V176.58H376.63V205.14H371.275V194.379ZM399.6 165.87H387.36V161.79H405.21V166.329C405.21 178.365 398.886 189.738 386.85 192.39V188.31C394.806 185.454 399.6 176.58 399.6 167.298V165.87ZM415.92 178.11V205.14H410.565V159.24H415.92V174.03H420.765V159.24H426.12V205.14H420.765V178.11H415.92ZM447.814 160.26V162.912C447.814 170.103 451.639 175.662 457.249 177.396V181.68C452.353 181.17 445.876 176.784 444.907 172.959C443.887 176.784 437.767 181.17 432.769 181.68V177.396C438.583 175.866 442.153 170.256 442.204 162.81V160.26H447.814ZM454.699 167.4H464.644V159.24H469.999V182.19H464.644V171.48H454.699V167.4ZM470.56 205.65H445.468C442.765 205.65 440.47 202.947 440.47 199.734V193.257H464.644V189.33H440.47V185.25H470.05V193.308C470.05 195.501 468.622 197.337 466.837 197.337H445.825V199.479C445.825 200.652 446.845 201.57 448.12 201.57H470.56V205.65ZM505.607 160.26C511.829 160.26 517.694 164.901 517.694 172.755C517.694 180.558 511.931 185.25 505.607 185.25C499.181 185.25 493.469 180.66 493.469 172.755C493.469 165.411 499.232 160.26 505.607 160.26ZM505.607 164.34C502.19 164.34 498.824 167.4 498.824 172.755C498.824 177.957 502.139 181.17 505.556 181.17C509.024 181.17 512.288 177.957 512.339 172.755C512.339 167.298 509.126 164.34 505.607 164.34ZM529.679 174.54V192.39H524.324V159.24H529.679V170.46H536.819V174.54H529.679ZM507.698 201.06H530.189V205.14H504.689C502.037 205.14 500.099 202.488 500.099 199.326V189.33H505.454V198.816C505.454 200.04 506.474 201.06 507.698 201.06ZM547.753 187.8H554.842C558.208 187.8 561.217 187.851 563.614 186.27V159.24H568.969V174.03H573.814V159.24H579.169V205.14H573.814V178.11H568.969V205.14H563.614V190.146C561.37 191.523 558.055 191.88 554.842 191.88H544.948C542.041 191.88 539.899 189.177 539.899 185.811V161.79H545.254V185.709C545.254 186.882 546.274 187.8 547.753 187.8Z" fill="black"/>
<path d="M223.245 50.5636V61.6053H216.648V56.1039H203.315V50.5636H223.245Z" fill="#050C30"/>
<path d="M217.617 21.4679L213.188 18.7559L208.759 21.4679L210.466 17.0899L205.991 14.3779H211.481L213.188 10L214.895 14.3779H220.339L215.91 17.0899L217.617 21.4679Z" fill="#4B93FF"/>
<path d="M223.245 45.3722L213.188 48.4328L203.315 45.3722V39.8706L213.188 42.8926L223.245 39.8706V45.3722Z" fill="#050C30"/>
<path d="M223.245 37.1587L213.188 40.1806L203.315 37.1587V31.6184L213.188 34.6403L223.245 31.6184V37.1587Z" fill="#4B93FF"/>
<path d="M223.245 28.9066L213.188 31.9287L203.315 28.9066V23.3665L213.188 26.4271L223.245 23.3665V28.9066Z" fill="#050C30"/>
<path d="M254.525 41.7303V32.2383H257.8V26.698H247.973V47.2704H257.8V41.7303H254.525Z" fill="#050C30"/>
<path d="M270.903 26.698V33.9817H267.627V26.698H261.076V47.2704H267.627V39.522H270.903V47.2704H277.5V26.698H270.903Z" fill="#050C30"/>
<path d="M235.563 49.1301C231.088 49.1301 227.213 52.1907 227.213 56.1812C227.213 60.0168 231.042 63 235.563 63C240.223 63 243.96 60.0168 243.96 56.1812C243.96 52.1907 240.223 49.1301 235.563 49.1301ZM235.563 58.2734C234.271 58.2734 233.21 57.2661 233.21 56.2201C233.21 55.0965 234.317 54.1666 235.563 54.1666C237.086 54.1666 238.008 55.0965 238.008 56.2201C238.008 57.2661 237.086 58.2734 235.563 58.2734Z" fill="#050C30"/>
<path d="M237.408 32.2383V38.902H243.96V26.698H227.213V32.2383H237.408Z" fill="#050C30"/>
<path d="M233.81 41.7303V35.0664H227.213V47.2704H243.96V41.7303H233.81Z" fill="#050C30"/>
<path d="M182.6 50.5636V56.1039H187.767V61.6053H194.364V56.1039H199.347V50.5636H182.6Z" fill="#050C30"/>
<path d="M199.347 26.698V47.2704H182.6V26.698H199.347ZM192.75 32.2383H189.151V41.769H192.75V32.2383Z" fill="#050C30"/>
<path d="M178.632 26.698H172.035V47.2704H178.632V26.698Z" fill="#050C30"/>
<path d="M162.208 26.698V33.9817H158.933V39.522H162.208V47.2704H168.76V26.698H162.208Z" fill="#050C30"/>
<path d="M150.905 47.2704L152.474 40.568L154.042 47.2704H159.948L155.703 33.9817V26.698H149.106V33.9817L145 47.2704H150.905Z" fill="#050C30"/>
<path d="M311.5 30.91L310.09 29.5L304.5 35.09L298.91 29.5L297.5 30.91L303.09 36.5L297.5 42.09L298.91 43.5L304.5 37.91L310.09 43.5L311.5 42.09L305.91 36.5L311.5 30.91Z" fill="black"/>
<path d="M411.532 22.4995H405.81V25.7099H398.01V28.7865H403.346C400.463 30.828 398.535 34.4648 398.535 38.6251C398.535 45.0224 403.071 50.2061 408.672 50.2061C414.269 50.2061 418.815 45.0224 418.815 38.6251C418.815 34.4648 416.887 30.828 414.002 28.7865H419.352V25.7099H411.532V22.4995ZM408.717 47.1308C406.255 47.1373 404.245 43.3378 404.238 38.6435C404.233 33.9505 406.225 30.1484 408.694 30.1392C411.163 30.1379 413.169 33.9387 413.173 38.6265C413.173 43.3129 411.19 47.1308 408.717 47.1308" fill="#231916"/>
<path d="M468.612 32.6359H463.308V23.3221H457.579V44.0974C456.638 44.9882 455.185 45.9303 453.206 45.8988H444.1C442.746 45.8988 441.662 44.8557 441.662 43.5752L441.672 24.8794H435.986L436.011 43.5752C436.011 46.5679 438.557 48.9964 441.7 48.9964L451.561 48.999C451.561 48.999 455.04 49.1643 457.579 46.9313V57.6752H463.308V35.7046H468.612V32.6359Z" fill="#231916"/>
<path d="M494.539 32.4764C494.539 26.9818 489.998 22.525 484.404 22.525C478.803 22.525 474.264 26.9818 474.264 32.4764C474.264 35.9178 476.046 38.9498 478.754 40.7354H468.246V43.9471H472.635L472.651 52.2061C472.651 55.2053 475.198 57.6351 478.343 57.6351L497.648 57.6443V54.5388H480.737C479.403 54.5388 478.31 53.4984 478.31 52.2061L478.32 43.9471H500.299V40.7354H490.05C492.753 38.9498 494.539 35.9178 494.539 32.4764ZM484.563 25.6292C487.041 25.6174 489.057 28.673 489.075 32.4672C489.103 36.251 487.122 39.3407 484.656 39.3539C482.188 39.367 480.169 36.3048 480.147 32.5197C480.114 28.7294 482.104 25.6397 484.563 25.6292" fill="#231916"/>
<path d="M518.077 35.7289C518.077 32.8937 516.793 30.372 514.808 28.7872H518.393V25.7092H512.739V22.5001H507.014V25.7092H501.318V28.7872H504.93C502.942 30.372 501.66 32.8937 501.66 35.7289C501.66 40.5465 505.333 44.4431 509.863 44.4431C514.408 44.4431 518.077 40.5465 518.077 35.7289ZM509.895 41.3455C508.492 41.3599 507.34 38.8514 507.317 35.7512C507.294 32.6497 508.413 30.1346 509.82 30.128C511.225 30.1149 512.385 32.6247 512.408 35.7223C512.418 38.8199 511.293 41.3363 509.895 41.3455Z" fill="#231916"/>
<path d="M534.077 48.5502V23.3495H528.666V30.2099L526.051 30.1981V23.322H520.604V39.4476C516.65 40.8095 513.817 44.4909 513.817 48.8323C513.817 54.3308 518.35 58.7784 523.958 58.7784C529.551 58.7784 534.091 54.3308 534.091 48.8323C534.091 48.7391 534.077 48.6447 534.077 48.5502ZM528.666 33.2773V40.0262C527.853 39.6077 526.977 39.2862 526.051 39.0999V33.2682L528.666 33.2773ZM524.058 55.5824C521.583 55.5916 519.577 52.5242 519.568 48.7417C519.556 44.9475 521.546 41.8682 524.007 41.8643C526.474 41.8525 528.492 44.9186 528.501 48.7116C528.511 52.5006 526.52 55.5824 524.058 55.5824Z" fill="#231916"/>
<path d="M428.092 23.3226H422.363V57.6757H428.092V35.709H433.403V32.6364H428.092V23.3226Z" fill="#231916"/>
<path d="M370.466 41.3233C370.325 40.5296 370.102 39.7595 369.772 39.047C368.727 36.8757 367.273 35.052 365.086 33.8267C361.695 31.9203 357.592 31.9335 354.233 33.8923C352.713 34.7752 351.464 36.0478 350.658 37.575C350.384 38.0932 350.163 38.6364 349.982 39.1901C349.095 41.8954 349.128 45.5348 350.723 48.0053C351.244 48.8122 351.995 49.4983 352.916 49.8447C353.837 50.1858 354.928 50.1504 355.754 49.6322C356.825 48.9696 357.014 47.6996 356.815 46.5739C356.564 45.1386 356.373 43.7217 356.92 42.3126C357.1 41.8639 357.347 41.4309 357.707 41.0964C357.925 40.897 358.184 40.729 358.457 40.6031C359.035 40.3315 359.697 40.2082 360.33 40.3092C361.445 40.4837 362.352 41.3115 362.848 42.2877C363.34 43.2585 363.475 44.3619 363.529 45.4443C363.762 50.1583 362.592 55.0441 361.343 59.5731C361.214 60.0415 361.081 60.5033 360.944 60.9677C360.834 61.3272 360.648 61.7825 360.884 62.1315C360.986 62.2797 361.147 62.3847 361.32 62.4516C362.047 62.735 362.638 62.3073 363.125 61.8337C366.001 59.0522 367.841 55.4653 369.1 51.776C369.571 50.401 369.974 48.9945 370.246 47.5671C370.617 45.6149 370.83 43.3819 370.466 41.3233Z" fill="#008E90"/>
<path d="M391.034 19.5275C391.034 18.8203 390.384 18.3546 389.682 18.3743C388.974 18.4018 388.317 18.7495 387.664 18.9909C375.025 23.6144 360.774 24.4895 347.455 22.6448C345.175 22.3273 342.867 21.8878 340.575 21.5414C339.145 21.3262 337.724 21.0153 336.279 20.909C335.049 20.8198 333.513 20.7765 332.517 21.6005C331.203 22.692 331.296 24.7623 332.041 26.1307C332.937 27.7707 334.504 29.0001 336.133 29.9381C337.716 30.8434 339.606 31.813 341.494 31.6975C346.582 31.3866 351.66 30.9129 356.721 30.2806C365.347 29.2021 374.394 28.184 382.496 24.9644C385.147 23.9109 387.759 22.5976 390.029 20.8999C390.443 20.5994 391.034 20.1022 391.034 19.5275Z" fill="#008E90"/>
<path d="M354.788 15.3604C354.788 18.0027 357.015 20.1426 359.761 20.1426C362.506 20.1426 364.731 18.0027 364.731 15.3604C364.731 14.9681 364.638 14.5732 364.461 14.2163C364.037 13.3452 363.557 12.9227 363.608 11.8836C363.669 10.4745 361.797 10.4575 360.788 10.4575C359.689 10.4575 358.522 10.6031 357.531 11.0833C356.741 11.469 356.061 12.0555 355.581 12.7745C355.083 13.5065 354.811 14.3764 354.79 15.2502C354.788 15.2882 354.788 15.325 354.788 15.3604Z" fill="#E1005B"/>
</svg>
