<svg xmlns="http://www.w3.org/2000/svg" xmlns:xlink="http://www.w3.org/1999/xlink" width="22" height="22" viewBox="0 0 22 22">
  <defs>
    <clipPath id="clip-path">
      <rect id="사각형_348875" data-name="사각형 348875" width="22" height="22" transform="translate(276 584)" fill="#2f3857" stroke="#707070" stroke-width="1"/>
    </clipPath>
  </defs>
  <g id="마스크_그룹_597" data-name="마스크 그룹 597" transform="translate(-276 -584)" clip-path="url(#clip-path)">
    <g id="그룹_461005" data-name="그룹 461005" transform="translate(9964.163 1295)">
      <g id="패스_24011" data-name="패스 24011" transform="translate(-9688 -710)" fill="#2f3857">
        <path d="M 4.605508804321289 19.27276611328125 C 4.741461277008057 18.77610206604004 5.012721538543701 17.81333351135254 5.552957534790039 15.94804096221924 L 5.560067176818848 15.92349052429199 L 5.67644739151001 15.52166080474854 L 5.301457405090332 15.33621120452881 C 3.850297451019287 14.61857128143311 2.64027738571167 13.62106132507324 1.802197456359863 12.45153045654297 C 0.950287401676178 11.26271057128906 0.4999974071979523 9.911681175231934 0.4999974071979523 8.544501304626465 C 0.4999974071979523 4.108750820159912 5.13712739944458 0.5000008940696716 10.83692741394043 0.5000008940696716 C 16.53672790527344 0.5000008940696716 21.17385673522949 4.108750820159912 21.17385673522949 8.544501304626465 C 21.17385673522949 12.98025131225586 16.53672790527344 16.5890007019043 10.83692741394043 16.5890007019043 L 10.80318737030029 16.58904075622559 C 10.1974573135376 16.58904075622559 9.586167335510254 16.54680061340332 8.986307144165039 16.4635009765625 L 8.792057037353516 16.43653106689453 L 8.631267547607422 16.5488109588623 L 8.534357070922852 16.61653137207031 C 6.189234733581543 18.25566482543945 5.105523109436035 18.9657154083252 4.605508804321289 19.27276611328125 Z" stroke="none"/>
        <path d="M 10.83692741394043 1 C 5.412826538085938 1 0.9999980926513672 4.384450912475586 0.9999980926513672 8.544501304626465 C 0.9999980926513672 11.11598110198975 2.690877914428711 13.48739051818848 5.523097991943359 14.88802146911621 L 6.273087501525879 15.25892066955566 L 6.03322696685791 16.0871410369873 C 5.783538818359375 16.94924354553223 5.59190559387207 17.61643409729004 5.44476318359375 18.13302040100098 C 6.073164939880371 17.71286010742188 6.969645500183105 17.10016250610352 8.247917175292969 16.20671081542969 L 8.666577339172363 15.9143009185791 L 9.055087089538574 15.9682502746582 C 9.632246971130371 16.04840087890625 10.22038745880127 16.08904075622559 10.80318737030029 16.08904075622559 L 10.83692741394043 16.0890007019043 C 16.26102828979492 16.0890007019043 20.67385673522949 12.70455074310303 20.67385673522949 8.544501304626465 C 20.67385673522949 4.384450912475586 16.26102828979492 1 10.83692741394043 1 M 10.83692741394043 0 C 16.82224655151367 0 21.67385673522949 3.825220108032227 21.67385673522949 8.544501304626465 C 21.67385673522949 13.26377105712891 16.82224655151367 17.0890007019043 10.83692741394043 17.0890007019043 C 10.19487762451172 17.0905704498291 9.553497314453125 17.04706192016602 8.917537689208984 16.9587516784668 C 8.292337417602539 17.39535140991211 4.674467086791992 19.93265151977539 4.332687377929688 19.98058128356934 C 4.24806022644043 20.01112174987793 4.154596328735352 20.00547027587891 4.074268341064453 19.96495056152344 C 3.955476760864258 19.8951416015625 3.977357864379883 19.71174049377441 3.977357864379883 19.71174049377441 C 4.012786865234375 19.46687126159668 4.914127349853516 16.35647010803223 5.079807281494141 15.78440093994141 C 2.028797149658203 14.2755708694458 -1.9073486328125e-06 11.59551048278809 -1.9073486328125e-06 8.544501304626465 C -1.9073486328125e-06 3.825220108032227 4.851608276367188 0 10.83692741394043 0 Z" stroke="none" fill="#fff"/>
      </g>
      <path id="패스_24012" data-name="패스 24012" d="M76.01,74.244h1.248l-.624-1.774Z" transform="translate(-9756.09 -774.919)" fill="#2f3857"/>
      <path id="패스_24013" data-name="패스 24013" d="M28.185,58.726c-.014,1.209.01,2.48-.009,3.67-.006.38-.225.494-.521.6a.2.2,0,0,1-.1.007c-.339-.067-.609-.188-.617-.609-.024-1.189.007-2.462-.009-3.671-.287-.011-.7.011-.961,0a.586.586,0,0,1-.61-.607.573.573,0,0,1,.616-.606c.977-.015,2.188-.015,3.166,0a.57.57,0,0,1,.615.606.587.587,0,0,1-.607.607C28.88,58.738,28.473,58.715,28.185,58.726Zm5.252,4.215a.963.963,0,0,1-.4.086.513.513,0,0,1-.521-.276l-.313-.811H30.3l-.313.811a.514.514,0,0,1-.521.276.955.955,0,0,1-.4-.086c-.173-.079-.339-.3-.149-.888l1.5-3.937a.871.871,0,0,1,1.667,0l1.494,3.935C33.775,62.643,33.609,62.866,33.437,62.941Zm3.159,0H34.591a.588.588,0,0,1-.6-.573V58.125a.639.639,0,0,1,1.276,0V61.8H36.6a.574.574,0,1,1,0,1.146Zm4.9-.471a.625.625,0,0,1-1.121.292l-1.466-1.941-.217.217V62.4a.625.625,0,0,1-1.25,0V58.129a.625.625,0,0,1,1.25,0v1.34l1.744-1.744a.483.483,0,0,1,.347-.14.634.634,0,0,1,.615.581.49.49,0,0,1-.137.38l-1.428,1.424,1.539,2.039a.625.625,0,0,1,.12.463Z" transform="translate(-9710.711 -761.508)" fill="#fff"/>
      <path id="패스_24014" data-name="패스 24014" d="M76.01,74.244h1.248l-.624-1.774Z" transform="translate(-9756.09 -774.919)" fill="#2f3857"/>
    </g>
  </g>
</svg>
