<svg xmlns="http://www.w3.org/2000/svg" xmlns:xlink="http://www.w3.org/1999/xlink" width="22" height="22" viewBox="0 0 22 22">
  <defs>
    <clipPath id="clip-path">
      <rect id="사각형_348874" data-name="사각형 348874" width="22" height="22" transform="translate(991 14552)" fill="#fff" stroke="#707070" stroke-width="1"/>
    </clipPath>
  </defs>
  <g id="마스크_그룹_596" data-name="마스크 그룹 596" transform="translate(-991 -14552)" clip-path="url(#clip-path)">
    <g id="phone-call" transform="translate(993.769 14554.775)">
      <g id="그룹_461004" data-name="그룹 461004" transform="translate(0.023 0)">
        <path id="패스_24010" data-name="패스 24010" d="M16.008,12.073l-2.3-2.3a1.527,1.527,0,0,0-2.542.574,1.562,1.562,0,0,1-1.8.984A7.079,7.079,0,0,1,5.1,7.071a1.486,1.486,0,0,1,.984-1.8,1.527,1.527,0,0,0,.574-2.542L4.366.43a1.637,1.637,0,0,0-2.214,0L.594,1.988c-1.558,1.64.164,5.985,4.017,9.839s8.2,5.657,9.839,4.017l1.558-1.558A1.637,1.637,0,0,0,16.008,12.073Z" transform="translate(-0.023 0)" fill="#fff"/>
      </g>
    </g>
  </g>
</svg>
