<svg xmlns="http://www.w3.org/2000/svg" xmlns:xlink="http://www.w3.org/1999/xlink" width="19" height="19" viewBox="0 0 19 19">
  <defs>
    <clipPath id="clip-path">
      <rect id="사각형_348899" data-name="사각형 348899" width="19" height="19" transform="translate(1430 30)" fill="#2c2c2c"/>
    </clipPath>
  </defs>
  <g id="마스크_그룹_603" data-name="마스크 그룹 603" transform="translate(-1430 -30)" clip-path="url(#clip-path)">
    <path id="youtube" d="M18.609,1.9A2.38,2.38,0,0,0,16.934.226C15.447-.181,9.5-.181,9.5-.181A57.78,57.78,0,0,0,2.066.211,2.429,2.429,0,0,0,.391,1.9,25.081,25.081,0,0,0,0,6.471a24.989,24.989,0,0,0,.391,4.57,2.381,2.381,0,0,0,1.675,1.675c1.5.407,7.434.407,7.434.407a57.78,57.78,0,0,0,7.434-.391,2.38,2.38,0,0,0,1.675-1.675A25.089,25.089,0,0,0,19,6.487,23.809,23.809,0,0,0,18.609,1.9Zm-11,7.418v-5.7l4.946,2.848Zm0,0" transform="translate(1430 33.029)" fill="#2c2c2c"/>
  </g>
</svg>
