<svg xmlns="http://www.w3.org/2000/svg" xmlns:xlink="http://www.w3.org/1999/xlink" width="50.119" height="50.119" viewBox="0 0 50.119 50.119">
  <defs>
    <clipPath id="clip-path">
      <rect id="사각형_5666" data-name="사각형 5666" width="50.119" height="50.119" fill="#5d87cd" stroke="#5d87cd" stroke-width="1"/>
    </clipPath>
  </defs>
  <g id="마스크_그룹_644" class="ico-1" data-name="마스크 그룹 644" clip-path="url(#clip-path)">
    <path id="icons8-keydb" d="M23.1.807A2.366,2.366,0,0,0,20.748,2.97L6.309,11.331a2.364,2.364,0,0,0-2.133,4.144v16.1A2.364,2.364,0,0,0,6.31,35.716l14.441,8.361a2.364,2.364,0,0,0,4.71,0L39.9,35.714a2.364,2.364,0,0,0,2.133-4.144v-16.1A2.364,2.364,0,0,0,39.9,11.329L25.458,2.968A2.366,2.366,0,0,0,23.1.807ZM20.523,5.29,13.768,17.021l-5.81-3.363a2.366,2.366,0,0,0-.183-.989Zm5.167,0L38.435,12.67a2.366,2.366,0,0,0-.185.991l-5.806,3.363Zm-3.094.192a2.3,2.3,0,0,0,1.02,0L30.8,17.971l-6.3,3.645a2.356,2.356,0,0,0-2.8,0l-6.3-3.647ZM7.143,15.374l5.681,3.289L6.069,30.393V15.9A2.366,2.366,0,0,0,7.143,15.374Zm31.926,0a2.366,2.366,0,0,0,1.072.527V30.4L33.388,18.663ZM14.461,19.611l6.3,3.645a2.366,2.366,0,0,0,1.4,2.433v7.3H7.912a2.366,2.366,0,0,0-.531-1.078Zm17.288,0,7.082,12.3a2.366,2.366,0,0,0-.531,1.078H24.051v-7.3a2.366,2.366,0,0,0,1.4-2.433ZM8.646,34.88H22.159V41.7a2.366,2.366,0,0,0-.776.547Zm15.406,0H37.564L24.828,42.252a2.366,2.366,0,0,0-.776-.547Z" transform="translate(1.954 1.537)" fill="#5d87cd" stroke="#5d87cd" stroke-width="0.807"/>
  </g>
</svg>
