<svg xmlns="http://www.w3.org/2000/svg" xmlns:xlink="http://www.w3.org/1999/xlink" width="70" height="70" viewBox="0 0 70 70">
  <defs>
    <clipPath id="clip-path">
      <rect id="사각형_348881" data-name="사각형 348881" width="70" height="70" transform="translate(1381 2639)" fill="#fff" stroke="#707070" stroke-width="1"/>
    </clipPath>
  </defs>
  <g id="마스크_그룹_601" data-name="마스크 그룹 601" transform="translate(-1381 -2639)" clip-path="url(#clip-path)">
    <g id="그룹_460914" data-name="그룹 460914" transform="translate(656.594 2198.125)">
      <g id="Layer_7" data-name="Layer 7" transform="translate(745.866 470.875)">
        <circle id="타원_153" data-name="타원 153" cx="20" cy="20" r="20" fill="#D5EFB6"/>
      </g>
      <g id="Layer_5" data-name="Layer 5" transform="translate(738.406 450.433)">
        <g id="그룹_460913" data-name="그룹 460913">
          <path id="사각형_5672" data-name="사각형 5672" d="M6.8,0H26.818a6.8,6.8,0,0,1,6.8,6.8V41.884a6.8,6.8,0,0,1-6.8,6.8H6.8a6.8,6.8,0,0,1-6.8-6.8V6.8A6.8,6.8,0,0,1,6.8,0Z" fill="none" stroke="#79C33A" stroke-width="4"/>
          <g id="그룹_460911" data-name="그룹 460911" transform="translate(5.258 5.258)">
            <path id="패스_23821" data-name="패스 23821" d="M767.276,454.144a.946.946,0,0,0-.945-.946H745.119a.947.947,0,0,0-.947.946V467.4h5.2a6.627,6.627,0,0,1,13.187,0h4.715Z" transform="translate(-744.172 -453.198)" fill="none" stroke="#79C33A" stroke-width="4"/>
            <path id="패스_23822" data-name="패스 23822" d="M756.469,462.227a6.627,6.627,0,0,0-6.593,5.965h13.187A6.627,6.627,0,0,0,756.469,462.227Z" transform="translate(-744.674 -453.992)" fill="none" stroke="#79C33A" stroke-width="4"/>
          </g>
          <line id="선_9" data-name="선 9" x1="3" y1="5" transform="translate(10.935 9.502)" fill="none" stroke="#79C33A" stroke-width="4"/>
          <g id="그룹_460912" data-name="그룹 460912" transform="translate(34.415 17.868)">
            <path id="패스_23823" data-name="패스 23823" d="M776.142,467.025h4.4a3.164,3.164,0,0,1,3.155,3.154V489.05" transform="translate(-776.142 -467.025)" fill="none" stroke="#79C33A" stroke-width="4"/>
          </g>
        </g>
      </g>
    </g>
  </g>
</svg>
