<svg xmlns="http://www.w3.org/2000/svg" xmlns:xlink="http://www.w3.org/1999/xlink" width="19" height="19" viewBox="0 0 19 19">
  <defs>
    <clipPath id="clip-path">
      <rect id="사각형_348898" data-name="사각형 348898" width="19" height="19" transform="translate(1469 30)" fill="#2c2c2c"/>
    </clipPath>
  </defs>
  <g id="마스크_그룹_602" data-name="마스크 그룹 602" transform="translate(-1469 -30)" clip-path="url(#clip-path)">
    <g id="blog" transform="translate(1469 31.69)">
      <path id="패스_24015" data-name="패스 24015" d="M70.945,46.217a.737.737,0,0,0-.543.234.8.8,0,0,0,0,1.115.74.74,0,0,0,.544.234.788.788,0,0,0,0-1.575Z" transform="translate(-66.926 -40.436)" fill="#2c2c2c"/>
      <path id="패스_24016" data-name="패스 24016" d="M77.519,46.211a.732.732,0,0,0-.543.234.8.8,0,0,0,0,1.115.732.732,0,0,0,.543.234.753.753,0,0,0,.553-.234.789.789,0,0,0,0-1.115.753.753,0,0,0-.553-.234Z" transform="translate(-66.926 -40.436)" fill="#2c2c2c"/>
      <path id="패스_24017" data-name="패스 24017" d="M81.9,46.217a.733.733,0,0,0-.544.234.8.8,0,0,0,0,1.115.737.737,0,0,0,.543.234.788.788,0,0,0,0-1.575Z" transform="translate(-66.926 -40.436)" fill="#2c2c2c"/>
      <path id="패스_24018" data-name="패스 24018" d="M83.853,40.436H69a2.078,2.078,0,0,0-2.071,2.071v8.4A2.078,2.078,0,0,0,69,52.98h5.834s1.126,3.076,1.537,3.076S78,52.98,78,52.98h5.857a2.078,2.078,0,0,0,2.072-2.071v-8.4A2.078,2.078,0,0,0,83.853,40.436ZM72.447,48.193a1.821,1.821,0,0,1-2.245.152h-.014v.234H69.072V43.72h1.116v1.859H70.2a1.836,1.836,0,0,1,1.171-.361,1.463,1.463,0,0,1,1.076.532A1.941,1.941,0,0,1,72.884,47,1.6,1.6,0,0,1,72.447,48.193Zm2.4.428H73.71V45.61a.725.725,0,0,0-.549-.787v-1.2a1.917,1.917,0,0,1,1.687,2.029Zm4.464-.923a1.775,1.775,0,0,1-.418.586,1.921,1.921,0,0,1-.623.389,2.055,2.055,0,0,1-.744.136,2,2,0,0,1-.732-.136,1.972,1.972,0,0,1-.623-.389,1.85,1.85,0,0,1-.428-.586,1.7,1.7,0,0,1,0-1.372,1.862,1.862,0,0,1,.428-.586,1.972,1.972,0,0,1,.623-.389,2,2,0,0,1,.732-.135,2.053,2.053,0,0,1,.744.135,1.921,1.921,0,0,1,.623.389,1.734,1.734,0,0,1,.418,1.971Zm4.472.484a2.217,2.217,0,0,1-.542,1.737,1.931,1.931,0,0,1-1.64.382v-.883a.944.944,0,0,0,1.076-.841V48.35h-.014a1.26,1.26,0,0,1-1.12.479,1.435,1.435,0,0,1-1.123-.484,1.87,1.87,0,0,1-.4-1.267,2.1,2.1,0,0,1,.449-1.413,1.54,1.54,0,0,1,1.215-.512,1.314,1.314,0,0,1,.983.351h.014v-.266h1.108Z" transform="translate(-66.926 -40.436)" fill="#2c2c2c"/>
    </g>
  </g>
</svg>
