<svg xmlns="http://www.w3.org/2000/svg" xmlns:xlink="http://www.w3.org/1999/xlink" width="70" height="70" viewBox="0 0 70 70">
  <defs>
    <clipPath id="clip-path">
      <rect id="사각형_348879" data-name="사각형 348879" width="70" height="70" transform="translate(760 2639)" fill="#fff" stroke="#D5EFB6" stroke-width="1"/>
    </clipPath>
  </defs>
  <g id="마스크_그룹_599" data-name="마스크 그룹 599" transform="translate(-760 -2639)" clip-path="url(#clip-path)">
    <g id="그룹_460904" data-name="그룹 460904" transform="translate(40.13 1826.791)">
      <g id="Layer_7" data-name="Layer 7" transform="translate(721.854 814.209)">
        <path id="패스_23815" data-name="패스 23815" d="M532.861,341.408a20,20,0,1,1-20-20A20,20,0,0,1,532.861,341.408Z" transform="translate(-492.861 -321.41)" fill="#D5EFB6"/>
      </g>
      <path id="icons8-keydb" d="M26.011.807a2.712,2.712,0,0,0-2.7,2.479L6.759,12.87a2.71,2.71,0,0,0-2.445,4.751V36.07a2.71,2.71,0,0,0,2.447,4.751L23.314,50.4a2.709,2.709,0,0,0,5.4,0l16.551-9.584a2.71,2.71,0,0,0,2.445-4.751V17.619a2.71,2.71,0,0,0-2.447-4.751L28.709,3.284A2.712,2.712,0,0,0,26.011.807Zm-2.96,5.138L15.309,19.392l-6.66-3.854a2.712,2.712,0,0,0-.21-1.134Zm5.922,0L43.584,14.4a2.712,2.712,0,0,0-.212,1.136l-6.655,3.854Zm-3.547.22a2.636,2.636,0,0,0,1.17,0l8.24,14.315L27.618,24.66a2.7,2.7,0,0,0-3.21,0l-7.221-4.181ZM7.715,17.5l6.511,3.77L6.484,34.72V18.11A2.712,2.712,0,0,0,7.715,17.5Zm36.6,0a2.712,2.712,0,0,0,1.229.6V34.723L37.8,21.274ZM16.1,22.361l7.217,4.178a2.712,2.712,0,0,0,1.606,2.788v8.365H8.6a2.712,2.712,0,0,0-.608-1.235Zm19.816,0,8.118,14.1a2.712,2.712,0,0,0-.608,1.235H27.1V29.328A2.712,2.712,0,0,0,28.7,26.539ZM9.437,39.863H24.927v7.823a2.712,2.712,0,0,0-.89.627Zm17.659,0H42.586l-14.6,8.45a2.712,2.712,0,0,0-.89-.627Z" transform="translate(730.803 823.564)" fill="#79C33A" stroke="#79C33A" stroke-width="0.807"/>
    </g>
  </g>
</svg>
