<svg xmlns="http://www.w3.org/2000/svg" xmlns:xlink="http://www.w3.org/1999/xlink" width="38.756" height="38.756" viewBox="0 0 38.756 38.756">
  <defs>
    <clipPath id="clip-path">
      <rect id="사각형_5666" data-name="사각형 5666" width="38.756" height="38.756" fill="#5d87cd" stroke="#707070" stroke-width="1"/>
    </clipPath>
  </defs>
  <g id="마스크_그룹_646" class="ico-1" data-name="마스크 그룹 646" clip-path="url(#clip-path)">
    <path id="gear" d="M37.844,14.965l-2.979-.648a16.211,16.211,0,0,0-.959-2.312l1.649-2.565A1.158,1.158,0,0,0,35.4,8l-4.64-4.64A1.158,1.158,0,0,0,29.315,3.2L26.75,4.849a16.211,16.211,0,0,0-2.312-.959L23.791.912A1.158,1.158,0,0,0,22.659,0H16.1a1.158,1.158,0,0,0-1.132.912l-.648,2.979a16.211,16.211,0,0,0-2.312.959L9.441,3.2A1.158,1.158,0,0,0,8,3.355L3.355,8A1.158,1.158,0,0,0,3.2,9.441l1.649,2.565a16.211,16.211,0,0,0-.959,2.312l-2.979.648A1.158,1.158,0,0,0,0,16.1v6.562a1.158,1.158,0,0,0,.912,1.132l2.979.648a16.211,16.211,0,0,0,.959,2.312L3.2,29.315a1.158,1.158,0,0,0,.155,1.445L8,35.4a1.158,1.158,0,0,0,1.445.155l2.565-1.649a16.211,16.211,0,0,0,2.312.959l.648,2.979a1.158,1.158,0,0,0,1.132.912h6.562a1.158,1.158,0,0,0,1.132-.912l.648-2.979a16.211,16.211,0,0,0,2.312-.959l2.565,1.649A1.158,1.158,0,0,0,30.76,35.4l4.64-4.64a1.158,1.158,0,0,0,.155-1.445L33.907,26.75a16.211,16.211,0,0,0,.959-2.312l2.979-.648a1.158,1.158,0,0,0,.912-1.132V16.1A1.158,1.158,0,0,0,37.844,14.965ZM26.326,19.378a6.948,6.948,0,1,1-6.948-6.948A6.956,6.956,0,0,1,26.326,19.378Zm0,0" fill="#5d87cd"/>
  </g>
</svg>
