<svg width="76" height="36" viewBox="0 0 76 36" fill="none" xmlns="http://www.w3.org/2000/svg">
<g clip-path="url(#clip0)">
<path d="M44.6316 27.5526V35.0526H40.8685V31.3158H33.2632V27.5526H44.6316Z" fill="#050C30"/>
<path d="M41.4211 7.78947L38.8948 5.94737L36.3685 7.78947L37.3422 4.81579L34.7896 2.97368H37.9211L38.8948 0L39.8685 2.97368H42.9737L40.4474 4.81579L41.4211 7.78947Z" fill="#4B93FF"/>
<path d="M44.6316 24.0263L38.8948 26.1052L33.2632 24.0263V20.2894L38.8948 22.3421L44.6316 20.2894V24.0263Z" fill="#050C30"/>
<path d="M44.6316 18.4474L38.8948 20.5L33.2632 18.4474V14.6842L38.8948 16.7368L44.6316 14.6842V18.4474Z" fill="#4B93FF"/>
<path d="M44.6316 12.8421L38.8948 14.8948L33.2632 12.8421V9.07898L38.8948 11.1579L44.6316 9.07898V12.8421Z" fill="#050C30"/>
<path d="M62.4737 21.5526V15.1052H64.3421V11.342H58.7368V25.3157H64.3421V21.5526H62.4737Z" fill="#050C30"/>
<path d="M71.8158 11.342V16.2894H69.9474V11.342H66.2105V25.3157H69.9474V20.0526H71.8158V25.3157H75.579V11.342H71.8158Z" fill="#050C30"/>
<path d="M51.6579 26.5789C49.1052 26.5789 46.8947 28.6578 46.8947 31.3683C46.8947 33.9736 49.0789 35.9999 51.6579 35.9999C54.3158 35.9999 56.4473 33.9736 56.4473 31.3683C56.4473 28.6578 54.3158 26.5789 51.6579 26.5789ZM51.6579 32.7894C50.921 32.7894 50.3158 32.1052 50.3158 31.3947C50.3158 30.6315 50.9473 29.9999 51.6579 29.9999C52.5263 29.9999 53.0526 30.6315 53.0526 31.3947C53.0526 32.1052 52.5263 32.7894 51.6579 32.7894Z" fill="#050C30"/>
<path d="M52.7105 15.1052V19.6315H56.4473V11.342H46.8947V15.1052H52.7105Z" fill="#050C30"/>
<path d="M50.6579 21.5526V17.0262H46.8947V25.3157H56.4473V21.5526H50.6579Z" fill="#050C30"/>
<path d="M21.4474 27.5526V31.3158H24.3948V35.0526H28.1579V31.3158H31V27.5526H21.4474Z" fill="#050C30"/>
<path d="M31 11.342V25.3157H21.4474V11.342H31ZM27.2369 15.1052H25.1842V21.5789H27.2369V15.1052Z" fill="#050C30"/>
<path d="M19.1842 11.342H15.421V25.3157H19.1842V11.342Z" fill="#050C30"/>
<path d="M9.81575 11.342V16.2894H7.94733V20.0526H9.81575V25.3157H13.5526V11.342H9.81575Z" fill="#050C30"/>
<path d="M3.36842 25.3157L4.26316 20.7631L5.1579 25.3157H8.52632L6.10527 16.2894V11.342H2.34211V16.2894L0 25.3157H3.36842Z" fill="#050C30"/>
</g>
<defs>
<clipPath id="clip0">
<rect width="75.579" height="36" fill="white"/>
</clipPath>
</defs>
</svg>
